# xmcd
#
# Track frame offsets:
#	150
#	20628
#	35246
#	50220
#	77869
#	90679
#	111991
#	137103
#	144714
#	161520
#	175234
#	194534
#
# Disc length: 2842 seconds
#
# Revision: 2107267332
# Processed by: cddbd v1.5.2PL0 Copyright (c) Steve Scherf et al.
# Submitted via: EZCDAudioConverter 8.1.0.1
#
DISCID=b50b180c
DTITLE=Robbie Fulks - Gone Away Backward
DYEAR=2013
DGENRE=Country
TTITLE0=I'll Trade You Money For Wine
TTITLE1=Where I Fell
TTITLE2=Long I Ride
TTITLE3=That's Where I'm From
TTITLE4=When You Get To The Bottom
TTITLE5=Snake Chapman's Tune
TTITLE6=Imogene
TTITLE7=Pacific Slope
TTITLE8=Sometimes The Grass Is Really Greener
TTITLE9=Guess I Got It Wrong
TTITLE10=The Many Disguises Of God
TTITLE11=Rose Of The Summer
EXTD=
EXTT0=
EXTT1=
EXTT2=
EXTT3=
EXTT4=
EXTT5=
EXTT6=
EXTT7=
EXTT8=
EXTT9=
EXTT10=
EXTT11=
PLAYORDER=
